<svg xmlns="http://www.w3.org/2000/svg" width="1600" height="1200" viewBox="0 0 1600 1200">
  <defs>
    <filter id="corrNoise" x="-10%" y="-10%" width="120%" height="120%">
      <feTurbulence type="fractalNoise" baseFrequency="0.025 0.12" numOctaves="4" seed="58"/>
      <feColorMatrix type="matrix" values="0.36 0 0 0 0.3 0 0.26 0 0 0.22 0 0 0.16 0 0.1 0 0 0 0.46 0"/>
    </filter>
    <linearGradient id="corrBase" x1="0" x2="1" y1="0" y2="1">
      <stop offset="0" stop-color="#9b6a3e"/>
      <stop offset="0.48" stop-color="#c29561"/>
      <stop offset="1" stop-color="#7c4e2e"/>
    </linearGradient>
    <pattern id="wideRidges" width="58" height="1200" patternUnits="userSpaceOnUse">
      <rect width="58" height="1200" fill="transparent"/>
      <rect x="0" width="11" height="1200" fill="#4f301d" opacity="0.34"/>
      <rect x="11" width="14" height="1200" fill="#f0c887" opacity="0.26"/>
      <rect x="25" width="10" height="1200" fill="#6b4024" opacity="0.3"/>
      <rect x="35" width="23" height="1200" fill="#f5d39a" opacity="0.2"/>
      <path d="M11 0v1200M25 0v1200M35 0v1200" stroke="#351f13" stroke-opacity="0.18" stroke-width="1"/>
    </pattern>
    <linearGradient id="edgeShade" x1="0" x2="1">
      <stop offset="0" stop-color="#3f2819" stop-opacity="0.36"/>
      <stop offset="0.08" stop-color="#3f2819" stop-opacity="0"/>
      <stop offset="0.9" stop-color="#3f2819" stop-opacity="0"/>
      <stop offset="1" stop-color="#3f2819" stop-opacity="0.32"/>
    </linearGradient>
  </defs>
  <rect width="1600" height="1200" fill="url(#corrBase)"/>
  <rect width="1600" height="1200" fill="url(#wideRidges)" opacity="0.94"/>
  <rect width="1600" height="1200" filter="url(#corrNoise)" opacity="0.72"/>
  <rect width="1600" height="1200" fill="url(#edgeShade)"/>
  <g opacity="0.32" stroke="#fff0c1" stroke-width="1.35">
    <path d="M0 126h1600M0 318h1600M0 536h1600M0 764h1600M0 1012h1600"/>
  </g>
  <g opacity="0.22" stroke="#4e301d" stroke-width="1.7" fill="none">
    <path d="M68 0c-28 252 28 432-4 674-19 143 4 312 0 526"/>
    <path d="M1532 0c23 213-13 417 6 626 14 150-24 328-4 574"/>
  </g>
  <g opacity="0.16" stroke="#3f2819" stroke-width="5" fill="none">
    <path d="M188 0c42 188 23 342 33 513 11 188-36 402 5 687"/>
    <path d="M712 0c-35 219 29 391-9 613-24 144 18 331-12 587"/>
    <path d="M1224 0c32 244-30 412 8 631 22 129-15 304 5 569"/>
  </g>
  <rect x="28" y="24" width="1544" height="1152" rx="18" fill="none" stroke="#321f13" stroke-opacity="0.22" stroke-width="3"/>
</svg>
