<svg xmlns="http://www.w3.org/2000/svg" width="520" height="520" viewBox="0 0 520 520">
  <filter id="grain" x="-20%" y="-20%" width="140%" height="140%">
    <feTurbulence type="fractalNoise" baseFrequency="0.55" numOctaves="3" seed="28"/>
    <feColorMatrix type="matrix" values="0.22 0 0 0 0.39 0 0.20 0 0 0.27 0 0 0.16 0 0.10 0 0 0 0.28 0"/>
  </filter>
  <rect width="520" height="520" fill="#c49863"/>
  <rect width="520" height="520" filter="url(#grain)" opacity="0.5"/>
  <g opacity="0.55">
    <rect x="0" y="0" width="18" height="520" fill="#9f7043"/>
    <rect x="18" y="0" width="18" height="520" fill="#d5af79"/>
    <rect x="36" y="0" width="18" height="520" fill="#b88450"/>
    <rect x="54" y="0" width="18" height="520" fill="#e1bd86"/>
    <pattern id="ridges" patternUnits="userSpaceOnUse" width="72" height="520">
      <path d="M0 0h8v520h-8zM16 0h10v520H16zM34 0h8v520h-8zM52 0h12v520H52z" fill="#6d4628" opacity="0.28"/>
      <path d="M8 0h8v520H8zM26 0h8v520h-8zM42 0h10v520H42zM64 0h8v520h-8z" fill="#f0d19a" opacity="0.24"/>
    </pattern>
    <rect width="520" height="520" fill="url(#ridges)"/>
  </g>
  <g opacity="0.16" stroke="#fff1c8" stroke-width="2">
    <path d="M0 88h520M0 226h520M0 374h520"/>
  </g>
</svg>
