<svg xmlns="http://www.w3.org/2000/svg" width="1600" height="1200" viewBox="0 0 1600 1200">
  <defs>
    <filter id="sheetNoise" x="-10%" y="-10%" width="120%" height="120%">
      <feTurbulence type="fractalNoise" baseFrequency="0.018 0.09" numOctaves="5" seed="31"/>
      <feColorMatrix type="matrix" values="0.38 0 0 0 0.42 0 0.3 0 0 0.28 0 0 0.18 0 0.1 0 0 0 0.46 0"/>
    </filter>
    <filter id="fiberWarp" x="-10%" y="-10%" width="120%" height="120%">
      <feTurbulence type="fractalNoise" baseFrequency="0.006 0.035" numOctaves="3" seed="92"/>
      <feDisplacementMap in="SourceGraphic" scale="18"/>
    </filter>
    <pattern id="paperFlecks" width="180" height="140" patternUnits="userSpaceOnUse">
      <rect width="180" height="140" fill="transparent"/>
      <path d="M18 24h46M92 31h22M131 18h35M34 82h28M86 105h61M8 121h76" stroke="#754827" stroke-width="1.3" stroke-linecap="round" opacity="0.18"/>
      <path d="M62 52h32M117 73h46M29 45h17M139 116h21" stroke="#fff1c7" stroke-width="1" stroke-linecap="round" opacity="0.22"/>
      <circle cx="22" cy="101" r="2" fill="#6d4225" opacity="0.16"/>
      <circle cx="150" cy="48" r="1.5" fill="#fff4d1" opacity="0.22"/>
    </pattern>
    <linearGradient id="paperBase" x1="0" x2="1" y1="0" y2="1">
      <stop offset="0" stop-color="#d3ad73"/>
      <stop offset="0.48" stop-color="#c3965d"/>
      <stop offset="1" stop-color="#e2c18b"/>
    </linearGradient>
    <radialGradient id="softLight" cx="42%" cy="18%" r="72%">
      <stop offset="0" stop-color="#fff2ce" stop-opacity="0.45"/>
      <stop offset="0.48" stop-color="#dcb77e" stop-opacity="0.18"/>
      <stop offset="1" stop-color="#80532f" stop-opacity="0.16"/>
    </radialGradient>
  </defs>
  <rect width="1600" height="1200" fill="url(#paperBase)"/>
  <rect width="1600" height="1200" filter="url(#sheetNoise)" opacity="0.86"/>
  <rect width="1600" height="1200" fill="url(#paperFlecks)" opacity="0.84"/>
  <rect width="1600" height="1200" fill="url(#softLight)"/>
  <g opacity="0.24" fill="none" stroke="#765033" stroke-width="1.35" filter="url(#fiberWarp)">
    <path d="M-80 108c196 28 344-32 538 5 198 38 325 33 514-2 214-39 358 16 708-4"/>
    <path d="M-90 292c168-35 351 34 563 8 176-22 304-47 497-6 196 42 365 14 718-11"/>
    <path d="M-80 517c197 34 354-31 568 11 246 48 398 24 603-17 176-35 321 32 596 1"/>
    <path d="M-90 801c248-31 398 34 636 3 225-30 374-41 588 2 186 37 304-17 560-8"/>
    <path d="M-80 1040c176 26 312-16 490 5 246 29 417 45 664 4 196-33 328 12 613-7"/>
  </g>
  <g opacity="0.18" fill="none" stroke="#fff3cf" stroke-width="1.1">
    <path d="M108 0c-22 216 17 373-2 553-16 156-50 323-16 647"/>
    <path d="M1396 0c28 250-22 396 3 600 19 158 38 312 10 600"/>
    <path d="M0 78c312-23 565 21 802-1 253-24 473-21 798 8"/>
    <path d="M0 1110c332 29 549-15 812 0 261 15 506 34 788-10"/>
  </g>
  <g opacity="0.14" fill="none" stroke="#5d391f" stroke-width="2" stroke-linecap="round">
    <path d="M235 154c138 74 253 91 406 52"/>
    <path d="M916 278c105-35 226-10 332 48"/>
    <path d="M178 733c182-44 344-32 507 36"/>
    <path d="M1018 936c174 31 296 1 434-52"/>
  </g>
  <rect width="1600" height="1200" fill="none" stroke="#4e2f1b" stroke-opacity="0.18" stroke-width="72"/>
  <rect x="20" y="18" width="1560" height="1164" rx="18" fill="none" stroke="#6d4629" stroke-opacity="0.16" stroke-width="2"/>
  <rect x="36" y="34" width="1528" height="1132" rx="12" fill="none" stroke="#ffe8b8" stroke-opacity="0.18" stroke-width="1"/>
</svg>
