<svg xmlns="http://www.w3.org/2000/svg" width="420" height="420" viewBox="0 0 420 420">
  <filter id="paperNoise" x="-20%" y="-20%" width="140%" height="140%">
    <feTurbulence type="fractalNoise" baseFrequency="0.9" numOctaves="4" seed="14"/>
    <feColorMatrix type="matrix" values="0.36 0 0 0 0.50 0 0.30 0 0 0.34 0 0 0.22 0 0.13 0 0 0 0.34 0"/>
  </filter>
  <rect width="420" height="420" fill="#b98952"/>
  <rect width="420" height="420" filter="url(#paperNoise)" opacity="0.58"/>
  <g opacity="0.16" stroke="#6f4828" stroke-width="1">
    <path d="M0 44c42 7 72-6 126 3 54 9 96 8 146-3 51-11 86 2 148 0"/>
    <path d="M0 128c58-12 104 12 164 3 45-7 76-15 126-4 48 10 81 5 130-3"/>
    <path d="M0 236c46 9 102-8 153 2 69 13 110 7 160-3 37-8 66 9 107 2"/>
    <path d="M0 350c68-8 105 9 168 1 58-7 98-11 150 0 35 8 61-4 102-2"/>
  </g>
</svg>
