<svg xmlns="http://www.w3.org/2000/svg" width="520" height="520" viewBox="0 0 520 520">
  <filter id="fiberNoise" x="-20%" y="-20%" width="140%" height="140%">
    <feTurbulence type="fractalNoise" baseFrequency="0.72" numOctaves="5" seed="42"/>
    <feColorMatrix type="matrix" values="0.36 0 0 0 0.62 0 0.34 0 0 0.58 0 0 0.26 0 0.46 0 0 0 0.3 0"/>
  </filter>
  <rect width="520" height="520" fill="#f0eadb"/>
  <rect width="520" height="520" filter="url(#fiberNoise)" opacity="0.46"/>
  <g opacity="0.22" fill="none" stroke="#776b53" stroke-width="0.7">
    <path d="M14 41c42 10 68-8 107 3s62 14 104-1"/>
    <path d="M262 79c56-17 96 17 152 1 24-7 52-5 87 4"/>
    <path d="M31 174c61-9 109 12 159 3 43-8 88-11 137 2"/>
    <path d="M170 310c62 11 116-12 177-3 44 7 78 13 122-2"/>
    <path d="M38 438c73-8 116 17 181 3 61-13 103-7 167 4"/>
  </g>
</svg>
